Coordinates
version=1
nRows=19
nColumns=63
inDegrees=yes

Units are S.I. units (second, meters, Newtons, ...)
If the header above contains a line with 'inDegrees', this indicates whether rotational values are in degrees (yes) or radians (no).

endheader
time	pelvis_tilt	pelvis_list	pelvis_rotation	pelvis_tx	pelvis_ty	pelvis_tz	hip_flexion_r	hip_adduction_r	hip_rotation_r	knee_angle_r	knee_angle_r_beta	ankle_angle_r	subtalar_angle_r	mtp_angle_r	hip_flexion_l	hip_adduction_l	hip_rotation_l	knee_angle_l	knee_angle_l_beta	ankle_angle_l	subtalar_angle_l	mtp_angle_l	L5_S1_Flex_Ext	L5_S1_Lat_Bending	L5_S1_axial_rotation	L4_L5_Flex_Ext	L4_L5_Lat_Bending	L4_L5_axial_rotation	L3_L4_Flex_Ext	L3_L4_Lat_Bending	L3_L4_axial_rotation	L2_L3_Flex_Ext	L2_L3_Lat_Bending	L2_L3_axial_rotation	L1_L2_Flex_Ext	L1_L2_Lat_Bending	L1_L2_axial_rotation	L1_T12_Flex_Ext	L1_T12_Lat_Bending	L1_T12_axial_rotation	Abs_r3	Abs_r2	Abs_r1	Abs_t1	Abs_t2	neck_flexion	neck_bending	neck_rotation	arm_flex_r	arm_add_r	arm_rot_r	elbow_flex_r	pro_sup_r	wrist_flex_r	wrist_dev_r	arm_flex_l	arm_add_l	arm_rot_l	elbow_flex_l	pro_sup_l	wrist_flex_l	wrist_dev_l
5.813559	-0.325469	7.641228	107.133490	0.168882	0.922666	0.824300	-9.369230	5.589721	-30.154322	7.219238	0.125999	21.639584	12.551823	0.000000	-2.589243	-6.797484	3.849563	14.984331	0.261526	30.008581	16.888714	0.000000	-0.629070	1.075854	7.707387	-1.168246	1.430886	8.189098	-1.033499	2.615832	8.189098	-0.718964	2.615832	6.743963	-0.584154	2.193882	6.262252	-0.359451	1.666499	5.780540	-4.493383	12.170280	42.866173	0.000000	0.000000	-3.328108	-2.961178	-44.128062	-40.289951	-16.012441	-71.358731	126.526791	32.676201	-6.562781	12.845219	60.469348	29.526639	183.789431	0.055502	0.960752	-69.855717	-24.530131
5.830508	-0.100786	7.550300	107.386803	0.167993	0.923009	0.825168	-9.202626	5.798424	-30.372672	7.169233	0.125127	21.364128	12.523686	0.000000	-2.449499	-6.946139	4.277728	14.845135	0.259096	29.833878	16.619558	0.000000	-0.612712	1.092725	7.598647	-1.137868	1.453324	8.073562	-1.006625	2.656851	8.073562	-0.700269	2.656851	6.648816	-0.568964	2.228284	6.173900	-0.350104	1.692630	5.698985	-4.376541	12.361119	42.261393	0.000000	0.000000	-3.187092	-3.119562	-44.135016	-41.105194	-16.996239	-69.176317	125.134832	30.584973	-6.311377	16.542000	59.519250	29.237609	185.906660	0.055863	1.017452	-69.851942	-24.533408
5.847458	0.140381	7.541839	107.574961	0.167091	0.923573	0.826263	-9.091245	6.020112	-30.536971	7.137435	0.124572	21.077675	12.509907	0.000000	-2.396013	-7.110701	4.702752	14.684891	0.256300	29.647942	16.257955	0.000000	-0.604351	1.117826	7.511539	-1.122341	1.486709	7.981010	-0.992889	2.717882	7.981010	-0.690713	2.717882	6.572597	-0.561201	2.279471	6.103125	-0.345326	1.731512	5.633654	-4.316821	12.645071	41.776926	0.000000	0.000000	-3.067316	-3.243385	-44.149210	-42.118872	-17.882424	-67.033389	123.951699	29.217475	-6.238252	20.376232	58.628115	29.079701	188.226366	0.056005	1.063673	-69.849371	-24.539252
5.864407	0.376576	7.622349	107.718275	0.166315	0.924313	0.827599	-9.041067	6.245681	-30.693897	7.134605	0.124522	20.807477	12.532630	0.000000	-2.410332	-7.296183	5.058992	14.549525	0.253937	29.478755	15.922223	0.000000	-0.604863	1.148381	7.455024	-1.123292	1.527346	7.920963	-0.993730	2.792173	7.920963	-0.691298	2.792173	6.523146	-0.561676	2.341778	6.057207	-0.345619	1.778842	5.591268	-4.320479	12.990712	41.462608	0.000000	0.000000	-2.940781	-3.211999	-44.171096	-43.270510	-18.589653	-65.183565	123.030249	28.959953	-5.932002	23.922869	57.932519	29.099754	190.588395	0.055837	1.098597	-69.848472	-24.548045
5.881356	0.585742	7.812039	107.809499	0.165752	0.925166	0.829137	-9.089534	6.468455	-30.830451	7.142081	0.124653	20.571856	12.598677	0.000000	-2.526053	-7.489683	5.343129	14.430119	0.251853	29.328095	15.597630	0.000000	-0.616411	1.184470	7.444628	-1.144736	1.575345	7.909918	-1.012701	2.879920	7.909918	-0.704496	2.879920	6.514050	-0.572399	2.415371	6.048760	-0.352217	1.834744	5.583471	-4.402959	13.398960	41.404789	0.000000	0.000000	-2.815460	-2.992381	-44.202723	-44.540401	-19.069093	-63.888355	122.482599	29.711641	-5.312030	27.002366	57.570563	29.336363	192.827348	0.055290	1.120593	-69.849404	-24.559838
5.898305	0.741857	8.116961	107.857734	0.165503	0.926040	0.830799	-9.259863	6.679579	-30.926258	7.149098	0.124775	20.386554	12.677601	0.000000	-2.758694	-7.677130	5.561323	14.327826	0.250068	29.203022	15.294552	0.000000	-0.640010	1.223890	7.488262	-1.188562	1.627773	7.956279	-1.051472	2.975766	7.956279	-0.731467	2.975766	6.552229	-0.594313	2.495756	6.084213	-0.365702	1.895805	5.616197	-4.571525	13.844887	41.647468	0.000000	0.000000	-2.698218	-2.556406	-44.245499	-45.884601	-19.304580	-63.370388	122.359097	31.319522	-4.235481	29.325028	57.666777	29.793819	194.756160	0.054333	1.130542	-69.852241	-24.575299
5.915254	0.819125	8.524176	107.891664	0.165645	0.926823	0.832467	-9.560417	6.880866	-30.874665	7.130608	0.124453	20.250570	12.593225	0.000000	-3.098442	-7.843501	5.728656	14.252896	0.248760	29.113959	15.036606	0.000000	-0.674503	1.262851	7.587612	-1.252619	1.679591	8.061838	-1.108140	3.070495	8.061838	-0.770889	3.070495	6.639160	-0.626343	2.575205	6.164935	-0.385411	1.956156	5.690709	-4.817904	14.285619	42.200021	0.000000	0.000000	-2.585382	-1.873928	-44.296146	-47.261955	-19.271330	-63.820731	122.686383	33.708158	-2.598359	30.711374	58.319829	30.454107	196.234839	0.052962	1.127549	-69.856965	-24.594258
5.932203	0.803153	9.023629	107.919395	0.166176	0.927437	0.834012	-10.005884	7.049813	-30.863967	7.077376	0.123524	20.194993	12.601458	0.000000	-3.549368	-7.971723	5.870164	14.200532	0.247846	29.062266	14.804280	0.000000	-0.718558	1.299508	7.743851	-1.334433	1.728345	8.227842	-1.180518	3.159623	8.227842	-0.821240	3.159623	6.775870	-0.667253	2.649956	6.291879	-0.410584	2.012938	5.807888	-5.132586	14.700292	43.068977	0.000000	0.000000	-2.504375	-0.968270	-44.355260	-48.648676	-18.965741	-65.376965	123.474875	36.518772	-0.209643	31.087648	59.576721	31.300475	197.119698	0.051230	1.112809	-69.863452	-24.616530
5.949153	0.696123	9.607645	107.974781	0.167062	0.927823	0.835360	-10.597358	7.205796	-30.830888	6.972803	0.121698	20.199124	12.574503	0.000000	-4.101655	-8.068272	6.015568	14.168547	0.247288	29.054287	14.611536	0.000000	-0.769713	1.333291	7.948437	-1.429434	1.773277	8.445215	-1.264562	3.241764	8.445215	-0.879705	3.241764	6.954883	-0.714756	2.718847	6.458105	-0.439814	2.065268	5.961328	-5.497984	15.082456	44.206824	0.000000	0.000000	-2.434745	0.172841	-44.419181	-50.024691	-18.385572	-68.081654	124.739204	39.402528	2.958546	30.499774	61.442792	32.309673	197.299246	0.049209	1.085063	-69.871484	-24.641248
5.966102	0.475382	10.244431	108.073203	0.168311	0.927928	0.836404	-11.317824	7.328599	-30.792203	6.810543	0.118866	20.270952	12.505740	0.000000	-4.740718	-8.109404	6.170723	14.139975	0.246789	29.085638	14.474107	0.000000	-0.826225	1.359739	8.195503	-1.534382	1.808452	8.707722	-1.357404	3.306068	8.707722	-0.944292	3.306068	7.171065	-0.767232	2.772779	6.658846	-0.472105	2.106235	6.146627	-5.901639	15.381635	45.580929	0.000000	0.000000	-2.394946	1.506018	-44.486090	-51.379848	-17.493167	-71.885334	126.495367	41.734510	6.846293	28.970743	63.871586	33.442751	196.742535	0.046955	1.042584	-69.880823	-24.667065
5.983051	0.167915	10.932490	108.222851	0.169857	0.927766	0.837175	-12.157296	7.445242	-30.718966	6.583729	0.114908	20.372189	12.343281	0.000000	-5.454492	-8.118488	6.350659	14.113119	0.246320	29.159199	14.379246	0.000000	-0.885509	1.381780	8.476555	-1.644478	1.837768	9.006340	-1.454802	3.359660	9.006340	-1.012048	3.359660	7.416986	-0.822284	2.817726	6.887201	-0.505980	2.140378	6.357417	-6.325101	15.630974	47.144059	0.000000	0.000000	-2.369671	3.011719	-44.554163	-52.691774	-16.334443	-76.715338	128.709780	42.979045	11.422814	26.943767	66.775182	34.670738	195.437329	0.044573	0.984854	-69.891134	-24.692232
6.000000	-0.225754	11.639299	108.385559	0.171704	0.927365	0.837658	-13.074998	7.518826	-30.678064	6.319619	0.110298	20.521175	12.212795	0.000000	-6.229170	-8.077198	6.500939	14.067691	0.245528	29.265175	14.352282	0.000000	-0.945211	1.397844	8.793353	-1.755352	1.859133	9.342938	-1.552888	3.398718	9.342938	-1.080282	3.398718	7.694184	-0.877723	2.850484	7.144600	-0.540094	2.165260	6.595015	-6.751551	15.812692	48.905994	0.000000	0.000000	-2.379049	4.670413	-44.621924	-53.961941	-14.909671	-82.429942	131.288766	43.514075	16.513651	23.983055	70.008543	35.947671	193.454635	0.042148	0.912211	-69.902044	-24.714851
6.016949	-0.665725	12.378150	108.544287	0.173767	0.926807	0.837981	-14.057438	7.576221	-30.614238	6.035524	0.105340	20.681668	12.071793	0.000000	-7.066246	-8.024097	6.573836	13.999720	0.244341	29.400919	14.431600	0.000000	-1.005002	1.414828	9.139509	-1.866389	1.881722	9.710729	-1.651118	3.440013	9.710729	-1.148617	3.440013	7.997071	-0.933245	2.885118	7.425851	-0.574258	2.191569	6.854632	-7.178629	16.004820	50.831210	0.000000	0.000000	-2.424964	6.421074	-44.687070	-55.209877	-13.281687	-88.812044	134.110110	43.078572	21.992006	20.427412	73.406423	37.229370	190.921340	0.039759	0.827319	-69.913120	-24.733706
6.033898	-1.143770	13.132623	108.712236	0.175940	0.926176	0.838244	-15.075109	7.612344	-30.608237	5.745366	0.100276	20.845201	11.999118	0.000000	-7.941030	-7.954836	6.632196	13.911695	0.242805	29.546262	14.554109	0.000000	-1.064466	1.433594	9.500518	-1.976820	1.906680	10.094301	-1.748811	3.485640	10.094301	-1.216578	3.485640	8.312954	-0.988463	2.923385	7.719171	-0.608236	2.220637	7.125389	-7.603373	16.217101	52.839034	0.000000	0.000000	-2.522733	8.221868	-44.746723	-56.425214	-11.516843	-95.584406	137.021199	42.213899	27.617488	16.059884	76.777299	38.462839	188.093280	0.037489	0.734783	-69.923777	-24.748691
6.050847	-1.587112	13.922015	108.831799	0.178108	0.925581	0.838640	-16.104771	7.668283	-30.581519	5.478470	0.095617	20.969898	11.966672	0.000000	-8.858933	-7.933360	6.571117	13.799113	0.240840	29.703236	14.786135	0.000000	-1.124410	1.462402	9.864754	-2.088142	1.944995	10.481301	-1.847293	3.555685	10.481301	-1.285088	3.555685	8.631660	-1.044127	2.982131	8.015112	-0.642488	2.265261	7.398565	-8.031548	16.542989	54.864801	0.000000	0.000000	-2.664305	9.985592	-44.797716	-57.628811	-9.792374	-102.440004	139.869036	40.930771	33.212718	11.098375	79.929229	39.619734	185.167714	0.035402	0.660745	-69.933372	-24.762036
6.067797	-1.999503	14.700563	108.979270	0.180161	0.925089	0.839242	-17.089825	7.738722	-30.631270	5.245703	0.091555	21.047099	11.986073	0.000000	-9.751663	-7.941942	6.530220	13.673232	0.238643	29.837667	15.046447	0.000000	-1.183371	1.496654	10.195158	-2.197638	1.990550	10.832356	-1.944160	3.638964	10.832356	-1.352475	3.638964	8.920764	-1.098878	3.051976	8.283566	-0.676178	2.318317	7.646369	-8.452699	16.930447	56.702412	0.000000	0.000000	-2.899442	11.641103	-44.835236	-58.692736	-8.179804	-108.949620	142.568050	39.986988	38.619027	5.980747	82.710265	40.628216	182.657755	0.033511	0.581697	-69.941292	-24.771259
6.084746	-2.350983	15.446089	109.150494	0.181983	0.924768	0.840174	-17.986839	7.824668	-30.855877	5.066561	0.088428	21.069819	12.188084	0.000000	-10.578359	-7.989951	6.546761	13.544599	0.236398	29.926562	15.285280	0.000000	-1.241564	1.538041	10.470951	-2.305709	2.045594	11.125386	-2.039766	3.739592	11.125386	-1.418984	3.739592	9.162083	-1.152916	3.136373	8.507648	-0.709430	2.382425	7.853214	-8.868368	17.398626	58.236291	0.000000	0.000000	-3.243460	13.071163	-44.861126	-59.682664	-6.812083	-114.542553	145.049363	39.439520	43.769111	0.869312	84.972293	41.465433	180.858571	0.031868	0.519906	-69.947095	-24.778035
6.101695	-2.604896	16.121209	109.314560	0.183494	0.924695	0.841549	-18.727545	7.938553	-31.049891	4.955313	0.086487	20.995582	12.294962	0.000000	-11.287044	-8.078481	6.649948	13.420266	0.234228	29.937306	15.417725	0.000000	-1.296914	1.586504	10.680231	-2.408498	2.110050	11.347746	-2.130699	3.857425	11.347746	-1.482243	3.857425	9.345202	-1.204314	3.235199	8.677688	-0.741056	2.457494	8.010173	-9.263725	17.946849	59.400242	0.000000	0.000000	-3.685142	14.227991	-44.874435	-60.701846	-5.778272	-118.619021	147.182354	39.455360	48.778736	-3.940115	86.575484	42.127940	180.012295	0.030518	0.480989	-69.950729	-24.784050
6.118644	-2.740273	16.699731	109.436806	0.184608	0.924974	0.843435	-19.274799	8.060442	-31.336453	4.929143	0.086030	20.821062	12.503175	0.000000	-11.851363	-8.197372	6.861639	13.293039	0.232007	29.827174	15.359878	0.000000	-1.348878	1.641945	10.823402	-2.505001	2.183787	11.499865	-2.216072	3.992225	11.499865	-1.541633	3.992225	9.470477	-1.252568	3.348254	8.794015	-0.770749	2.543373	8.117552	-9.634900	18.574009	60.196517	0.000000	0.000000	-4.199522	15.079933	-44.880453	-61.854765	-5.093289	-120.780707	148.853316	39.846013	53.632028	-8.297005	87.402313	42.642214	180.294740	0.029463	0.465964	-69.952768	-24.789544
